<svg xmlns="http://www.w3.org/2000/svg" width="262.49" height="98.626" viewBox="0 0 262.49 98.626">
  <g id="Group_1" data-name="Group 1" transform="translate(-83.51 -28.374)">
    <text id="Stylush" transform="translate(121 109)" fill="#fff" font-size="72" font-family="SegoeUI, Segoe UI"><tspan x="0" y="0">Stylush</tspan></text>
    <g id="Layer_31" data-name="Layer 31" transform="translate(82.51 27.375)">
      <path id="Path_1" data-name="Path 1" d="M4.237,28.9l-1.98,3.959A3.5,3.5,0,0,0,4.54,37.827l1.011.252,1.086,5.976A4.8,4.8,0,0,0,11.364,48a4.7,4.7,0,0,0,.678-.049l5.361-.765a9.641,9.641,0,0,1,1.332,4.9v3.9h1.774v-3.9a11.393,11.393,0,0,0-1.272-5.23l3.223-.641-.355-1.738-4.412.881-5.907.844a3.057,3.057,0,0,1-3.405-2.453L7.192,37.2a.887.887,0,0,0-.657-.7L4.97,36.106a1.729,1.729,0,0,1-1.127-2.451l3.276-6.542a.887.887,0,0,0,.047-.677,16.381,16.381,0,0,1-.845-5.184,8.241,8.241,0,0,1,1.786-5.127l4.268,12.149A41.235,41.235,0,0,0,34.143,52.167l.563,3.94,1.756-.252-.41-2.866c.493.2.983.4,1.485.577a41.324,41.324,0,0,0,13.939,2.414h3.616a.887.887,0,0,0,.344-1.7l-8.316-3.5a18.711,18.711,0,0,1-3.806-2.168A44.737,44.737,0,0,0,55,51.541a.915.915,0,0,0,.1.005.887.887,0,0,0,.4-1.685,26.913,26.913,0,0,1-7.325-5.381,15.308,15.308,0,0,0,6.818,2.62.887.887,0,0,0,.664-1.572,17.624,17.624,0,0,1-5.835-8.539l-.423-1.351a146.849,146.849,0,0,1-3.818-14.947A24.564,24.564,0,0,0,21.546,1,20.573,20.573,0,0,0,1,21.546,9.943,9.943,0,0,0,4.237,28.9ZM21.546,2.774A22.79,22.79,0,0,1,43.832,21.041,148.634,148.634,0,0,0,47.7,36.168l.423,1.352a19.376,19.376,0,0,0,3.948,7.036A13.593,13.593,0,0,1,45.184,38.7L39.012,28.047a.887.887,0,0,0-1.576.808l3.912,8.69a28.813,28.813,0,0,0,9.38,11.5,42.457,42.457,0,0,1-14.586-6.214A40.849,40.849,0,0,1,29.981,28.74l-1.508-6.651-1.731.394,1.508,6.651A42.647,42.647,0,0,0,32.311,39.94,42.714,42.714,0,0,1,21.476,25.919L19.534,21.9l-1.6.772,1.941,4.022A44.25,44.25,0,0,0,38.314,46.234a20.563,20.563,0,0,0,8.119,6.176l4.25,1.79A39.67,39.67,0,0,1,14.048,27.684L9.5,14.731l1.827-1.522-1.137-1.362L8.163,13.532a10.021,10.021,0,0,0-3.615,7.72,18.157,18.157,0,0,0,.819,5.394l-.3.6a8.185,8.185,0,0,1-2.293-5.7A18.794,18.794,0,0,1,21.546,2.774Z" transform="translate(0 0)" fill="#fff"/>
      <path id="Path_2" data-name="Path 2" d="M17.887,12.207A2.363,2.363,0,0,1,20.2,14.1l.366,1.829a.887.887,0,0,0,1.738,0l.366-1.825a2.363,2.363,0,0,1,2.312-1.9.887.887,0,1,0,0-1.774,2.363,2.363,0,0,1-2.312-1.9L22.3,6.709a.887.887,0,0,0-1.738,0L20.2,8.534a2.363,2.363,0,0,1-2.312,1.9.887.887,0,1,0,0,1.774Zm3.547-2.016a4.168,4.168,0,0,0,.995,1.129,4.168,4.168,0,0,0-.995,1.129,4.168,4.168,0,0,0-.995-1.129,4.168,4.168,0,0,0,.995-1.129Z" transform="translate(-1.811 -0.566)" fill="#fff"/>
      <path id="Path_3" data-name="Path 3" d="M60.981,25.434a2.363,2.363,0,0,1-2.312-1.9L58.3,21.709a.887.887,0,0,0-1.738,0L56.2,23.534a2.363,2.363,0,0,1-2.312,1.9.887.887,0,0,0,0,1.774A2.363,2.363,0,0,1,56.2,29.1l.366,1.829a.887.887,0,0,0,1.738,0l.366-1.825a2.363,2.363,0,0,1,2.312-1.9.887.887,0,1,0,0-1.774Zm-3.547,2.016a4.168,4.168,0,0,0-.995-1.129,4.168,4.168,0,0,0,.995-1.129,4.168,4.168,0,0,0,.995,1.129,4.168,4.168,0,0,0-.995,1.129Z" transform="translate(-5.887 -2.264)" fill="#fff"/>
      <path id="Path_4" data-name="Path 4" d="M46.887,7.207A2.363,2.363,0,0,1,49.2,9.1l.366,1.829a.887.887,0,0,0,1.738,0l.366-1.825a2.363,2.363,0,0,1,2.312-1.9.887.887,0,1,0,0-1.774,2.363,2.363,0,0,1-2.312-1.9L51.3,1.709a.887.887,0,0,0-1.738,0L49.2,3.534a2.363,2.363,0,0,1-2.312,1.9.887.887,0,1,0,0,1.774Zm3.547-2.016a4.168,4.168,0,0,0,.995,1.129,4.168,4.168,0,0,0-.995,1.129,4.168,4.168,0,0,0-.995-1.129,4.168,4.168,0,0,0,.995-1.129Z" transform="translate(-5.095 0)" fill="#fff"/>
    </g>
  </g>
</svg>
